<?xml version="1.0" encoding="UTF-8"?>
<svg version="1.1" viewBox="0 0 640 512" xmlns="http://www.w3.org/2000/svg" xmlns:xlink="http://www.w3.org/1999/xlink">
    <!--Generated by IJSVG (https://github.com/iconjar/IJSVG)-->
    <path d="M471.1,96c-66.1,0 -117.8,41.3 -151.1,78.6c-33.3,-37.3 -85,-78.6 -151.1,-78.6c-93.1,0 -168.9,71.8 -168.9,160c0,88.2 75.8,160 168.9,160c66.1,0 117.8,-41.3 151.1,-78.6c33.3,37.3 85,78.6 151.1,78.6c93.1,0 168.9,-71.8 168.9,-160c0,-88.2 -75.8,-160 -168.9,-160Zm-302.2,224c-40.2,0 -72.9,-28.7 -72.9,-64c0,-35.3 32.7,-64 72.9,-64c38.2,0 73.4,36.1 94,64c-20.4,27.6 -55.9,64 -94,64Zm302.2,0c-38.2,0 -73.4,-36.1 -94,-64c20.4,-27.6 55.9,-64 94,-64c40.2,0 72.9,28.7 72.9,64c0,35.3 -32.7,64 -72.9,64Z" fill="#000"></path>
</svg>