<?xml version="1.0" encoding="UTF-8"?><svg width="6383" height="6383" version="1.1" viewBox="0 0 6383 6383" xmlns="http://www.w3.org/2000/svg" xmlns:xlink="http://www.w3.org/1999/xlink"><!--Generated by IJSVG (https://github.com/iconjar/IJSVG)--><g transform="scale(50)"><path fill="#22292F" d="M120.46,0h-113.26l-2.5083e-07,6.93873e-10c-3.97189,0.0109874 -7.18901,3.22811 -7.2,7.2v113.26l-8.0436e-08,-2.90987e-05c0.0109713,3.97189 3.22808,7.18903 7.19997,7.20003h113.26l-3.8036e-07,1.05217e-09c3.97189,-0.0109871 7.18901,-3.22811 7.2,-7.2v-113.26l8.23004e-08,2.97736e-05c-0.0109709,-3.97189 -3.22808,-7.18903 -7.19997,-7.20003Zm-4.75,115.71h-103.71v-103.71h103.71Z"></path><path fill="#22292F" d="M48.0549,83.7051c4.3934,4.3934 4.3934,11.5165 0,15.9099c-4.3934,4.3934 -11.5165,4.3934 -15.9099,1.42109e-14c-4.3934,-4.3934 -4.3934,-11.5165 0,-15.9099c4.3934,-4.3934 11.5165,-4.3934 15.9099,-1.42109e-14"></path><path fill="#22292F" d="M95.5149,28.0351c4.3934,4.3934 4.3934,11.5165 0,15.9099c-4.3934,4.3934 -11.5165,4.3934 -15.9099,0c-4.3934,-4.3934 -4.3934,-11.5165 -1.42109e-14,-15.9099c4.3934,-4.3934 11.5165,-4.3934 15.9099,0"></path></g></svg>