<svg width="24" height="24" viewBox="0 0 24 24" fill="none" xmlns="http://www.w3.org/2000/svg">
<g id="dice-2">
<g id="secondary">
<path d="M9.52852 15.1137C10.2168 15.802 10.2168 16.918 9.52852 17.6062C8.84023 18.2945 7.72428 18.2945 7.03599 17.6062C6.34769 16.918 6.34769 15.802 7.03599 15.1137C7.72428 14.4254 8.84023 14.4254 9.52852 15.1137Z" fill="#22292F"/>
<path d="M16.9638 6.39222C17.652 7.08049 17.652 8.19641 16.9638 8.88469C16.2755 9.57297 15.1596 9.57297 14.4713 8.88469C13.7831 8.19641 13.7831 7.08049 14.4713 6.39222C15.1596 5.70394 16.2755 5.70394 16.9638 6.39222Z" fill="#22292F"/>
</g>
<path id="primary" d="M20.872 2H3.12798V2C2.50572 2.00172 2.00171 2.50574 1.99998 3.128V20.8721L1.99998 20.8721C2.0017 21.4943 2.50572 21.9983 3.12798 22.0001H20.872V22.0001C21.4942 21.9983 21.9983 21.4943 22 20.8721V3.128L22 3.128C21.9983 2.50574 21.4943 2.00172 20.872 2V2ZM20.1278 20.1279H3.87998V3.88H20.1278V20.1279Z" fill="#22292F"/>
</g>
</svg>
