<svg width="24" height="24" viewBox="0 0 24 24" fill="none" xmlns="http://www.w3.org/2000/svg">
<g id="dice-1">
<path id="secondary" d="M13.2435 10.751C13.9317 11.4394 13.9317 12.5554 13.2435 13.2437C12.5552 13.9321 11.4393 13.9321 10.751 13.2437C10.0627 12.5554 10.0627 11.4394 10.751 10.751C11.4393 10.0627 12.5552 10.0627 13.2435 10.751" fill="#22292F"/>
<path id="primary" d="M20.872 2H3.12798V2C2.50572 2.00172 2.00171 2.50574 1.99998 3.128V20.872L1.99998 20.872C2.0017 21.4943 2.50572 21.9983 3.12798 22H20.872V22C21.4942 21.9983 21.9983 21.4943 22 20.872V3.128L22 3.128C21.9983 2.50574 21.4943 2.00172 20.872 2V2ZM20.1278 20.1278H3.87998V3.87999H20.1278V20.1278Z" fill="#22292F"/>
</g>
</svg>
