<svg width="24" height="24" viewBox="0 0 24 24" fill="none" xmlns="http://www.w3.org/2000/svg">
<g id="dice-4">
<g id="secondary">
<path d="M9.33765 6.23627C10.026 6.92459 10.026 8.04058 9.33765 8.7289C8.64933 9.41722 7.53334 9.41722 6.84501 8.7289C6.15669 8.04058 6.15669 6.92459 6.84501 6.23627C7.53334 5.54795 8.64933 5.54795 9.33765 6.23627Z" fill="#22292F"/>
<path d="M9.33765 15.2692C10.026 15.9575 10.026 17.0735 9.33765 17.7618C8.64933 18.4502 7.53334 18.4502 6.84501 17.7618C6.15669 17.0735 6.15669 15.9575 6.84501 15.2692C7.53334 14.5809 8.64933 14.5809 9.33765 15.2692Z" fill="#22292F"/>
<path d="M17.1293 6.23627C17.8176 6.92459 17.8176 8.04058 17.1293 8.7289C16.441 9.41722 15.3251 9.41722 14.6368 8.7289C13.9485 8.04058 13.9485 6.92459 14.6368 6.23627C15.3251 5.54795 16.441 5.54795 17.1293 6.23627Z" fill="#22292F"/>
<path d="M17.1293 15.2692C17.8176 15.9575 17.8176 17.0735 17.1293 17.7618C16.441 18.4502 15.3251 18.4502 14.6368 17.7618C13.9485 17.0735 13.9485 15.9575 14.6368 15.2692C15.3251 14.5809 16.441 14.5809 17.1293 15.2692Z" fill="#22292F"/>
</g>
<path id="primary" d="M20.872 2H3.12798V2C2.50572 2.00172 2.00171 2.50574 1.99998 3.128V20.872L1.99998 20.872C2.0017 21.4943 2.50572 21.9983 3.12798 22H20.872V22C21.4942 21.9983 21.9983 21.4943 22 20.872V3.128L22 3.128C21.9983 2.50574 21.4943 2.00172 20.872 2V2ZM20.1278 20.1278H3.87998V3.87999H20.1278V20.1278Z" fill="#22292F"/>
</g>
</svg>
