<svg width="24" height="24" viewBox="0 0 24 24" fill="none" xmlns="http://www.w3.org/2000/svg">
<g id="dice-5">
<g id="secondary">
<path d="M9.33765 5.92176C10.026 6.61008 10.026 7.72606 9.33765 8.41438C8.64933 9.1027 7.53334 9.1027 6.84501 8.41438C6.15669 7.72606 6.15669 6.61008 6.84501 5.92176C7.53334 5.23344 8.64933 5.23344 9.33765 5.92176Z" fill="#22292F"/>
<path d="M9.33765 15.5837C10.026 16.272 10.026 17.388 9.33765 18.0763C8.64933 18.7647 7.53334 18.7647 6.84501 18.0763C6.15669 17.388 6.15669 16.272 6.84501 15.5837C7.53334 14.8954 8.64933 14.8954 9.33765 15.5837Z" fill="#22292F"/>
<path d="M13.2334 10.751C13.9216 11.4393 13.9216 12.5552 13.2334 13.2434C12.5451 13.9317 11.4292 13.9317 10.7409 13.2434C10.0526 12.5552 10.0526 11.4393 10.7409 10.751C11.4292 10.0627 12.5451 10.0627 13.2334 10.751Z" fill="#22292F"/>
<path d="M17.1293 5.92176C17.8176 6.61008 17.8176 7.72606 17.1293 8.41438C16.441 9.1027 15.3251 9.1027 14.6368 8.41438C13.9485 7.72606 13.9485 6.61008 14.6368 5.92176C15.3251 5.23344 16.441 5.23344 17.1293 5.92176Z" fill="#22292F"/>
<path d="M17.1293 15.5837C17.8176 16.272 17.8176 17.388 17.1293 18.0763C16.441 18.7647 15.3251 18.7647 14.6368 18.0763C13.9485 17.388 13.9485 16.272 14.6368 15.5837C15.3251 14.8954 16.441 14.8954 17.1293 15.5837Z" fill="#22292F"/>
</g>
<path id="primary" d="M20.872 2H3.12798V2C2.50572 2.00172 2.00171 2.50574 1.99998 3.128V20.872L1.99998 20.872C2.0017 21.4943 2.50572 21.9983 3.12798 22H20.872V22C21.4942 21.9983 21.9983 21.4943 22 20.872V3.128L22 3.128C21.9983 2.50574 21.4943 2.00172 20.872 2V2ZM20.1278 20.1278H3.87998V3.87999H20.1278V20.1278Z" fill="#22292F"/>
</g>
</svg>
