<svg width="24" height="24" viewBox="0 0 24 24" fill="none" xmlns="http://www.w3.org/2000/svg">
<g id="dice-3">
<g id="secondary">
<path d="M9.55413 15.5837C10.2425 16.272 10.2425 17.388 9.55413 18.0764C8.86575 18.7647 7.74968 18.7647 7.0613 18.0764C6.37293 17.388 6.37293 16.272 7.0613 15.5837C7.74968 14.8954 8.86575 14.8954 9.55413 15.5837Z" fill="#22292F"/>
<path d="M13.232 10.751C13.92 11.4393 13.92 12.5552 13.232 13.2434C12.5439 13.9317 11.4284 13.9317 10.7404 13.2434C10.0523 12.5552 10.0523 11.4393 10.7404 10.751C11.4284 10.0627 12.5439 10.0627 13.232 10.751Z" fill="#22292F"/>
<path d="M17.1283 5.92176C17.8165 6.61008 17.8165 7.72606 17.1283 8.41438C16.4401 9.1027 15.3244 9.1027 14.6362 8.41438C13.948 7.72606 13.948 6.61008 14.6362 5.92176C15.3244 5.23344 16.4401 5.23344 17.1283 5.92176Z" fill="#22292F"/>
</g>
<path id="primary" d="M20.872 2H3.12798V2C2.50572 2.00172 2.00171 2.50574 1.99998 3.128V20.872L1.99998 20.872C2.0017 21.4943 2.50572 21.9983 3.12798 22H20.872V22C21.4942 21.9983 21.9983 21.4943 22 20.872V3.128L22 3.128C21.9983 2.50574 21.4943 2.00172 20.872 2V2ZM20.1278 20.1278H3.87998V3.87999H20.1278V20.1278Z" fill="#22292F"/>
</g>
</svg>
