<svg width="24" height="24" viewBox="0 0 24 24" fill="none" xmlns="http://www.w3.org/2000/svg">
<g id="dice-6">
<path id="primary" d="M20.872 2H3.12798V2C2.50572 2.00172 2.00171 2.50574 1.99998 3.128V20.872L1.99998 20.872C2.0017 21.4943 2.50572 21.9983 3.12798 22H20.872V22C21.4942 21.9983 21.9983 21.4943 22 20.872V3.128L22 3.128C21.9983 2.50574 21.4943 2.00172 20.872 2V2ZM20.1278 20.1278H3.87998V3.87999H20.1278V20.1278Z" fill="#22292F"/>
<g id="secondary">
<path d="M9.33812 5.92176C10.0264 6.61008 10.0264 7.72606 9.33812 8.41438C8.64983 9.1027 7.53391 9.1027 6.84563 8.41438C6.15735 7.72606 6.15735 6.61008 6.84563 5.92176C7.53391 5.23344 8.64983 5.23344 9.33812 5.92176Z" fill="#22292F"/>
<path d="M9.33812 15.5837C10.0264 16.272 10.0264 17.388 9.33812 18.0764C8.64983 18.7647 7.53391 18.7647 6.84563 18.0764C6.15735 17.388 6.15735 16.272 6.84563 15.5837C7.53391 14.8954 8.64983 14.8954 9.33812 15.5837Z" fill="#22292F"/>
<path d="M9.33812 10.751C10.0264 11.4393 10.0264 12.5552 9.33812 13.2434C8.64983 13.9317 7.53391 13.9317 6.84563 13.2434C6.15735 12.5552 6.15735 11.4393 6.84563 10.751C7.53391 10.0627 8.64983 10.0627 9.33812 10.751Z" fill="#22292F"/>
<path d="M17.1295 10.751C17.8178 11.4393 17.8178 12.5552 17.1295 13.2434C16.4412 13.9317 15.3253 13.9317 14.637 13.2434C13.9487 12.5552 13.9487 11.4393 14.637 10.751C15.3253 10.0627 16.4412 10.0627 17.1295 10.751Z" fill="#22292F"/>
<path d="M17.1295 5.92176C17.8178 6.61008 17.8178 7.72606 17.1295 8.41438C16.4412 9.1027 15.3253 9.1027 14.637 8.41438C13.9487 7.72606 13.9487 6.61008 14.637 5.92176C15.3253 5.23344 16.4412 5.23344 17.1295 5.92176Z" fill="#22292F"/>
<path d="M17.1295 15.5837C17.8178 16.272 17.8178 17.388 17.1295 18.0764C16.4412 18.7647 15.3253 18.7647 14.637 18.0764C13.9487 17.388 13.9487 16.272 14.637 15.5837C15.3253 14.8954 16.4412 14.8954 17.1295 15.5837Z" fill="#22292F"/>
</g>
</g>
</svg>
